<?xml version="1.0" encoding="UTF-8"?> <svg xmlns="http://www.w3.org/2000/svg" id="Layer_1" data-name="Layer 1" viewBox="0 0 706.32 245.4"><defs><style>.cls-1{fill:#ed1c24;}.cls-2{fill:#636466;}.cls-3{fill:#000104;}</style></defs><path class="cls-1" d="M266.58,128.82l.08,3q0,10.24,2,12.11t12.8,1.88q15.94,0,27.67-3.79t15-10c.79-1.53,1.59-2.3,2.38-2.3s1.33.57,1.28,1.7q-.35,5.6-5.54,12.3-7.33,9.26-23.78,9.25-2.73,0-6.31-.25l-9.21-.69q-8.1-.58-17.13-.59a126.25,126.25,0,0,0-17.56,1q-3,.42-4.77.51-2.13.09-2.13-1.5c0-.88.77-1.54,2.31-2q5.93-1.78,7.93-5.24t2-11.65l.08-3.92V52.4q0-11.35-9.19-13.22l-3.83-.77c-1.37-.28-2.05-.83-2.05-1.66,0-1.28,1-1.92,2.89-1.92,1.3,0,3.09.12,5.35.34q5.79.51,13,.51,7.81,0,14.19-.42c2.15-.12,3.37-.17,3.65-.17,1.36,0,2,.41,2,1.25,0,1.22-.82,2-2.47,2.41l-3,.68q-7.67,1.88-7.66,15.27Z"></path><path class="cls-1" d="M371.59,80.3a36.31,36.31,0,0,1,26.32,10.76,34.7,34.7,0,0,1,11,25.65q0,16.16-10.81,26.71T370.74,154q-16.17,0-26.61-10.25T333.7,117.47a35.47,35.47,0,0,1,11.07-26.32A36.92,36.92,0,0,1,371.59,80.3Zm-2.16,3.41a21.12,21.12,0,0,0-17.13,7.88q-6.51,7.88-6.51,20.65,0,16.26,8.12,27.2t20.19,10.95q10.54,0,16.62-7.75t6.08-21q0-16.77-7.65-27.33T369.43,83.71Z"></path><path class="cls-1" d="M450.29,139.15,467,104.83l-1.65-4.3q-3.06-8.25-5.07-10.87A10.52,10.52,0,0,0,454.47,86c-1.42-.33-2.13-.91-2.13-1.75q0-1.83,2.73-1.83a35.89,35.89,0,0,1,3.59.29,76.57,76.57,0,0,0,9.14.39q5.11,0,10-.48c1.36-.13,2.25-.2,2.64-.2,1.77,0,2.65.53,2.65,1.58s-.59,1.64-1.79,1.91l-2.64.6q-3.4.78-3.4,5c0,1.26.62,3.53,1.87,6.84l15.16,40,8.94-20.9,3.41-7.84q4.25-9.73,4.25-16.12a7.28,7.28,0,0,0-2.12-5.42A7.49,7.49,0,0,0,501.31,86c-1.71,0-2.56-.58-2.56-1.75s.71-1.74,2.12-1.74c.85,0,1.95.06,3.31.17q2.38.25,8.41.25c4.19,0,7,0,8.57-.17s2.49-.17,3.23-.17c1.19,0,1.78.5,1.78,1.49,0,.81-.63,1.45-1.87,1.92a10.47,10.47,0,0,0-4.64,2.59,20.74,20.74,0,0,0-3.37,5.65l-24.1,56.49q-1.43,3.22-4,3.22c-1.63,0-2.78-.9-3.45-2.72l-15.16-39.85L450,151.92a3.58,3.58,0,0,1-3.53,2.21,2.71,2.71,0,0,1-2.85-1.87l-20.19-52.18L421.94,96q-2.73-6.92-8.69-9.38c-1.36-.56-2-1.25-2-2.08,0-1.11.94-1.67,2.81-1.67.51,0,1.5.06,3,.17,1.76.17,4.86.26,9.28.26l9-.18,3.58-.08,1.95.44a1.33,1.33,0,0,1,.69,1.31c-.06.81-.6,1.37-1.62,1.66l-2.3.59a4.78,4.78,0,0,0-3.92,5.1q0,1.88,2.46,8.59Z"></path><path class="cls-1" d="M540.16,109.43l-.09,1.87q0,14.57,8.06,24.48T568,145.7q9.3,0,20.22-8.34a2.89,2.89,0,0,1,1.28-.6c.79,0,1.19.4,1.19,1.36q0,2.53-6,7.2Q573.62,154,561.27,154A30,30,0,0,1,538,143.42q-9.4-10.54-9.41-26.12a38.12,38.12,0,0,1,9.71-25.89Q548,80.3,561,80.3q14.22,0,22.74,11.84a44.37,44.37,0,0,1,4.17,7.83q2.13,4.95,2.13,6.9c0,1.88-1.85,2.81-5.55,2.81l-6.31-.08-5.8-.17Zm.51-4.69h28.86c4.49,0,6.73-.9,6.73-2.72q0-6.64-5.75-12.35T558,84a14.54,14.54,0,0,0-11.63,5.57Q541.78,95.12,540.67,104.74Z"></path><path class="cls-1" d="M624.14,32.2v100q0,7,1.62,10.74,1.88,4.26,10.56,5.71c1.58.28,2.41.86,2.47,1.75a1.6,1.6,0,0,1-1.8,1.91,10.41,10.41,0,0,1-2.22-.34,21.14,21.14,0,0,0-3.84-.26l-7.42.09h-4.44q-8.12,0-10,.25c-1.82.29-2.9.43-3.24.43-1.48,0-2.25-.56-2.31-1.67-.06-.94.74-1.63,2.39-2.08q3.83-1.1,5.15-2.93c.88-1.22,1.32-3.2,1.32-5.92V45.39q0-7.83-5.45-7.83l-4.26.17a5.08,5.08,0,0,1-1.45-.18,1.45,1.45,0,0,1-1-1.4q0-1.21,2.22-1.83a37.3,37.3,0,0,0,5.3-1.62l5.21-2.13a40.24,40.24,0,0,0,8.29-4.08,3.31,3.31,0,0,1,1.71-.68c.86-.06,1.28,1.19,1.28,3.75Z"></path><path class="cls-1" d="M669.29,32.2v100q0,7,1.62,10.74,1.88,4.26,10.56,5.71c1.59.28,2.41.86,2.47,1.75,0,1.27-.54,1.91-1.79,1.91a10.23,10.23,0,0,1-2.22-.34,21.29,21.29,0,0,0-3.84-.26l-7.43.09h-4.44q-8.12,0-10,.25c-1.82.29-2.9.43-3.24.43-1.48,0-2.25-.56-2.31-1.67,0-.94.74-1.63,2.39-2.08q3.82-1.1,5.15-2.93c.88-1.22,1.32-3.2,1.32-5.92V45.39q0-7.83-5.45-7.83l-4.26.17a5.08,5.08,0,0,1-1.45-.18,1.45,1.45,0,0,1-1-1.4c0-.81.74-1.42,2.23-1.83a37.56,37.56,0,0,0,5.29-1.62l5.22-2.13a40.79,40.79,0,0,0,8.29-4.08,3.25,3.25,0,0,1,1.71-.68c.85-.06,1.28,1.19,1.28,3.75Z"></path><path class="cls-2" d="M262.87,173.89a20.92,20.92,0,0,0-14.67,5.92,20.16,20.16,0,0,0,0,28.86,21,21,0,0,0,14.67,6,21.26,21.26,0,0,0,14.72-6,20.28,20.28,0,0,0,0-28.86A21.29,21.29,0,0,0,262.87,173.89Zm15.56,20.38a15.51,15.51,0,0,1-26.55,11,15.48,15.48,0,0,1-4.57-11,15.63,15.63,0,0,1,4.57-11.16,15.51,15.51,0,0,1,22,0A15.61,15.61,0,0,1,278.43,194.27Z"></path><path class="cls-2" d="M316.59,193c3.3-1.26,5.11-4,5.11-7.91a10.11,10.11,0,0,0-4-8.34c-2.5-1.84-5.64-2-9.8-2h-8.22v38.87h8.22c5.71,0,9.37-.2,12.19-3a11.55,11.55,0,0,0,3.24-8.16C323.37,197.55,320.79,194,316.59,193Zm-12-1.39V179.14h3.35c5.88,0,8.67,1,8.67,6.47,0,4.36-2.35,6-8.67,6Zm0,4h4.69c2.41,0,4.23.07,5.77,1,2,1.13,3.07,3.17,3.07,5.9a6.69,6.69,0,0,1-2.45,5.48c-1.64,1.16-4.24,1.25-7.73,1.25h-3.35Z"></path><path class="cls-2" d="M353.25,191.88l-5.48-2.43c-3.44-1.48-5-3.38-5-6a5.29,5.29,0,0,1,5.66-5.39c2.59,0,4.66,1.41,6.33,4.31l.11.19,4.1-2.64-.09-.16c-1.91-3.87-5.41-5.92-10.13-5.92-6.38,0-11,4.07-11,9.67,0,4.78,2.53,8.17,7.71,10.35l4.68,2c3.94,1.71,5.85,4.16,5.85,7.51,0,4.16-3,6.95-7.49,6.95-3.77,0-6.34-2.4-7.44-6.94l-.06-.25-4.52,2.23,0,.16c1.47,5.77,5.84,9.08,12,9.08,7.49,0,12.52-4.82,12.52-12C361,197.66,358.37,194.05,353.25,191.88Z"></path><polygon class="cls-2" points="375.67 213.62 396.35 213.62 396.35 208.97 380.65 208.97 380.65 194.63 396.35 194.63 396.35 189.98 380.65 189.98 380.65 179.35 396.35 179.35 396.35 174.75 375.67 174.75 375.67 213.62"></polygon><path class="cls-2" d="M424,195.28c6.93,0,10.59-3.4,10.59-9.83,0-3.72-1.35-6.89-3.69-8.72s-5.09-2-8.94-2h-9.25v38.87h4.88V195.28h.34l14,18.34h6.33l-14.68-18.34Zm5.66-9.78c0,5.12-2.71,6-8.78,6H417.6V179h3.29C426.84,179,429.67,180,429.67,185.5Z"></path><polygon class="cls-2" points="461.71 203.81 450.61 174.88 450.56 174.75 445.17 174.75 461.71 215.47 478.1 175.03 478.21 174.75 472.82 174.75 461.71 203.81"></polygon><path class="cls-2" d="M484.39,213.62h5.39l5-11.78h14.74l5,11.78h5.39l-17.79-40.68Zm11.92-16.11,5.82-13.43L508,197.51Z"></path><polygon class="cls-2" points="525.28 179.52 536.15 179.52 536.15 213.62 541.18 213.62 541.18 179.52 552 179.52 552 174.75 525.28 174.75 525.28 179.52"></polygon><path class="cls-2" d="M581.72,173.89a20.92,20.92,0,0,0-14.67,5.92,20.14,20.14,0,0,0,0,28.86,21.07,21.07,0,0,0,29.39,0,20.28,20.28,0,0,0,0-28.86A21.3,21.3,0,0,0,581.72,173.89Zm0,36a15.23,15.23,0,0,1-11-4.62,15.48,15.48,0,0,1-4.57-11,15.63,15.63,0,0,1,4.57-11.16,15.51,15.51,0,0,1,22,0,15.64,15.64,0,0,1,4.56,11.15,15.67,15.67,0,0,1-15.55,15.66Z"></path><path class="cls-2" d="M629.85,195.28c6.93,0,10.59-3.4,10.59-9.83,0-3.72-1.34-6.89-3.68-8.72s-5.09-2-9-2h-9.24v38.87h4.87V195.28h.34l14,18.34h6.34l-14.69-18.34Zm5.66-9.78c0,5.12-2.71,6-8.78,6h-3.29V179h3.29C632.68,179,635.51,180,635.51,185.5Z"></path><polygon class="cls-2" points="676.23 174.75 666.34 191.24 656.4 174.75 650.64 174.75 663.83 195.89 663.83 213.62 668.81 213.62 668.81 195.89 681.99 174.75 676.23 174.75"></polygon><path class="cls-2" d="M196.19,74.73l-6.4,5.39a88.6,88.6,0,0,1,11.05,22.56,91.06,91.06,0,0,1,4.27,30.07,92.66,92.66,0,0,1-4.19,24.92,99.46,99.46,0,0,1-7.6,17.72c-5.22,9.3-9.18,13.89-8.61,14.38.36.37,5.26-3.41,11.66-12.49a87.44,87.44,0,0,0,9.42-17.9,91.92,91.92,0,0,0,5.83-26.31,93.26,93.26,0,0,0-15.43-58.34Z"></path><path class="cls-2" d="M79,50.39c1.5-.73,3.05-1.39,4.59-2.07A89.53,89.53,0,0,1,93.2,45a85.87,85.87,0,0,1,20.51-3.27,90.36,90.36,0,0,1,20.73,1.61,87.94,87.94,0,0,1,19.19,6.23,82.38,82.38,0,0,1,7.36,3.8l6.47-6.54a91.18,91.18,0,0,0-10-5.46,96,96,0,0,0-21.18-7,98,98,0,0,0-22.9-1.83,93.7,93.7,0,0,0-22.68,3.67A95.53,95.53,0,0,0,80,39.91c-1.7.77-3.4,1.51-5.05,2.33s-3.31,1.65-4.87,2.61A94.37,94.37,0,0,0,39.23,73.07a93.43,93.43,0,0,0-15.8,67.51c.33,2.5.87,4.89,1.36,7.23.27,1.16.6,2.29.89,3.42l.45,1.67.53,1.62a91.43,91.43,0,0,0,4.66,11.83,88.25,88.25,0,0,0,10.84,17.08c.9,1,1.7,2.08,2.54,3s1.63,1.73,2.36,2.5c1.51,1.5,2.84,2.7,3.93,3.65,2.28,1.82,3.56,2.65,3.78,2.41.54-.55-3.82-4.77-9.72-13.66a100.52,100.52,0,0,1-9-17,96,96,0,0,1-3.74-11.37c-.13-.51-.27-1-.41-1.54l-.34-1.59c-.22-1.06-.48-2.13-.68-3.23-.35-2.2-.76-4.45-1-6.78a89.91,89.91,0,0,1,1.86-30.32A87.61,87.61,0,0,1,46.16,78a87.37,87.37,0,0,1,28.4-25.27C76,51.86,77.51,51.17,79,50.39Z"></path><path class="cls-3" d="M156,126a5.39,5.39,0,0,0-.38,2.2,18.09,18.09,0,0,0,.26,3.1,33.62,33.62,0,0,0,.69,3.31l.46,1.66.51,1.61.94,3-2.57.72a22,22,0,0,0-3.22,1.13,18.42,18.42,0,0,0-3,1.7,22.09,22.09,0,0,0-5,5l-.55.8-.48.75c-.34.51-.62,1.07-.93,1.61a34,34,0,0,0-1.54,3.42,35.34,35.34,0,0,0-2,7.4,31.88,31.88,0,0,1,.38-7.85,36.29,36.29,0,0,1,.95-3.9c.22-.63.41-1.28.68-1.91l.39-1,.4-.89a22.74,22.74,0,0,1,9.41-10.14l-.52-1.24c-.49-1.21-.93-2.45-1.31-3.74a25.28,25.28,0,0,1-.88-4.11,12.91,12.91,0,0,1,.15-4.2v-.07a51.23,51.23,0,0,0-7.11,6c.13-5.56,4.08-11.61,5.59-13.71l-.85-2.81c-2.39-1.62-4.79-3.23-7.17-4.86l-2-1.39.06-2.79v-.28q-3.43-3.23-6.85-6.47l-.14.08c-1.08.63-2.17,1.29-3.24,2-2.16,1.35-4.28,2.78-6.32,4.31a98.13,98.13,0,0,0-11.52,10c-1.65,1.66-3.22,3.4-4.71,5.19l0,.06c.17.37.34.74.5,1.12s.41.75.59,1.14c.45.74.89,1.52,1.44,2.27a12.46,12.46,0,0,0,.81,1.14c.29.38.55.79.82,1.08a19.71,19.71,0,0,0,3.8,3.5,11.28,11.28,0,0,0,4,1.82,10.26,10.26,0,0,0,1.92.26c.6,0,1.16,0,1.62,0,.94-.07,1.53-.14,1.53-.14l-.26.32a6.77,6.77,0,0,1-.82.84,8.7,8.7,0,0,1-3.88,2,10.46,10.46,0,0,1-6.41-.71c-.22-.09-.43-.22-.65-.33-1.51,2.77.72,8.51,1.54,10.42l1.11.52c1.42.66,2.82,1.37,4.21,2.1q4.16,2.19,8.2,4.61c2.68,1.63,5.28,3.41,7.79,5.3,1.25,1,2.44,2,3.59,3.07a25.25,25.25,0,0,1,3.15,3.47,43.08,43.08,0,0,0-7.8-4.87c-2.72-1.39-5.54-2.58-8.36-3.74s-5.69-2.23-8.57-3.23L110.08,150c-1-.33-2-.64-3-1l-.12.06c13,10.12,33.12,35.87,33.12,35.87l2.17-16.25a42.27,42.27,0,0,1,17.64,13.06l15.68,16.51c-57,44.58-109.88,5.21-109.88,5.21l.13-9.31c.06-18.06,3.28-20.15,3.28-20.15,3.79-4.34,15.77-13.48,24.58-20L93,152.4c-.07-.2-.13-.38-.18-.57l-.28-.65a6.39,6.39,0,0,0-.34-.7c-.12-.24-.26-.49-.41-.73a27.3,27.3,0,0,0-2-3l-.15-.19c-9.79,10.18-11.56-2.2-11.56-2.2-7.43-52.56,37-71.76,37-71.76,6-1.36,15,8.58,17.31,12.69l7.08,7.11,7.1-6.83-4.45-4.64,38.79-39.18c-1.14-.85-1.82-1.3-1.82-1.3l12.25-12.3s14.93,9.2,23.25,25.74L202,64.55c-.32-.57-.65-1.13-1-1.69l-42.12,35.5-3.55-3.7-8.07,7.74,0,.24v.19c2.64,2.07,5.29,4.14,7.9,6.25l3.58,2.89L156,115.24l-.83,1a12.13,12.13,0,0,1,.9,3,21.52,21.52,0,0,1,.24,2.91c0,.47,0,.92,0,1.39l-.05.69A7.61,7.61,0,0,1,156,126Z"></path></svg> 